<?xml version="1.0" encoding="UTF-8"?>
<svg width="1323px" height="1535px" viewBox="0 0 1323 1535" version="1.1" xmlns="http://www.w3.org/2000/svg" xmlns:xlink="http://www.w3.org/1999/xlink">
    <!-- Generator: Sketch 47.1 (45422) - http://www.bohemiancoding.com/sketch -->
    <title>masks2</title>
    <desc>Created with Sketch.</desc>
    <defs></defs>
    <g id="Page-1" stroke="none" stroke-width="1" fill="none" fill-rule="evenodd">
        <g id="masks2" fill-rule="nonzero">
            <g id="main_anim-(1)" fill="#F3D0CB">
                <g id="Group">
                    <rect id="Rectangle-path" x="0.9" y="0" width="1321.4" height="1534.9"></rect>
                </g>
            </g>
            <path d="M831.834002,1046.22545 L813.1,1040.6106 L813.1,993.6 L826.4,985 L844.7,990.6 L844.7,1037.21319 L831.834002,1046.22545 Z" id="Combined-Shape" fill="#FF0C00"></path>
            <path d="M614.169193,1150.50842 L599.7,1146.11268 L599.7,1137.9 L610,1130.6 L624.3,1135 L624.3,1143.53189 L614.169193,1150.50842 Z" id="Combined-Shape" fill="#FF0C00"></path>
            <path d="M793.883912,1002.33401 L788,1000.50369 L788,997.2 L792.1,994.2 L797.9,996 L797.9,999.511434 L793.883912,1002.33401 Z" id="Combined-Shape" fill="#FF0000"></path>
            <path d="M805.700411,1006.52166 L799.9,1004.78984 L799.9,997.7 L804,994.7 L809.8,996.5 L809.8,1003.70703 L805.700411,1006.52166 Z" id="Combined-Shape" fill="#FF0000"></path>
            <path d="M609.312223,1108.29936 L596.458629,1117.2421 L577.7,1111.49016 L577.7,1064.6 L591.1,1055.9 L609.4,1061.6 L609.312223,1108.29936 Z" id="Combined-Shape" fill="#FF1900"></path>
            <path d="M599.675674,1051.34018 L588.5,1047.9449 L588.5,1041.6 L596.4,1036.1 L607.3,1039.4 L607.3,1045.92709 L599.675674,1051.34018 Z" id="Combined-Shape" fill="#FF0000"></path>
            <path d="M583.994541,1027.11237 L572.711425,1023.60507 L572.7,995 L580.8,989.7 L592,993.2 L591.905902,1021.70402 L583.994541,1027.11237 Z" id="Combined-Shape" fill="#FF1900"></path>
            <path d="M569.099273,1108.30541 L563.3,1106.53331 L563.3,1103.2 L567.4,1100.2 L573.2,1102 L573.2,1105.4987 L569.099273,1108.30541 Z" id="Combined-Shape" fill="#FF0000"></path>
            <path d="M624.40515,1125.01548 L618.5,1123.31997 L618.5,1119.9 L622.6,1117 L628.4,1118.8 L628.4,1122.20007 L624.40515,1125.01548 Z" id="Combined-Shape" fill="#FF0000"></path>
            <path d="M623.504184,1092.30089 L617.6,1090.50641 L617.6,1083.4 L621.8,1080.5 L627.6,1082.3 L627.6,1089.50482 L623.504184,1092.30089 Z" id="Combined-Shape" fill="#FF0000"></path>
            <path d="M797.156984,1046.52879 L768.8,1037.88551 L768.8,1007.5 L816.782078,1007.5 L817,1032.71958 L797.156984,1046.52879 Z" id="Combined-Shape" fill="#FF0C00"></path>
            <path d="M542.815301,1154.34527 L514.5,1145.86698 L514.5,1129.6 L534.6,1115.4 L562.6,1124 L562.6,1140.55447 L542.815301,1154.34527 Z" id="Combined-Shape" fill="#FF0C00"></path>
            <path d="M619.53194,1036.22116 L600.8,1030.59784 L600.8,983.6 L614.1,975 L632.4,980.6 L632.927842,1026.95294 L619.53194,1036.22116 Z" id="Combined-Shape" fill="#FF0C00"></path>
            <path d="M724.583325,1001.80118 L713.5,998.428 L713.5,992.1 L721.4,986.6 L732.3,989.9 L732.3,996.397404 L724.583325,1001.80118 Z" id="Combined-Shape" fill="#FF0000"></path>
            <path d="M630.6,906.905114 L659.1,906.905114 L659.121993,981.828225 L671.853012,996.520766 L671.1,997.2 L659.4,1005.3 L630.6,995.9 L630.6,906.905114 Z" id="Combined-Shape" fill="#FF0000"></path>
            <path d="M790.40459,1064.80218 L784.5,1063.00188 L784.5,1059.7 L788.6,1056.7 L794.4,1058.5 L794.4,1061.99399 L790.40459,1064.80218 Z" id="Combined-Shape" fill="#FF0000"></path>
            <path d="M733.416699,984.79235 L727.5,982.990711 L727.5,979.7 L731.6,976.7 L737.4,978.5 L737.4,982.004898 L733.416699,984.79235 Z" id="Combined-Shape" fill="#FF0000"></path>
            <path d="M691.917474,1072.51097 L686,1070.79933 L686,1063.7 L690.1,1060.7 L695.9,1062.5 L695.9,1069.69214 L691.917474,1072.51097 Z" id="Combined-Shape" fill="#FF0000"></path>
            <path d="M658.915145,1068.80331 L653,1067.00635 L653,1063.7 L657.2,1060.7 L663,1062.5 L663,1066.00935 L658.915145,1068.80331 Z" id="Combined-Shape" fill="#FF0000"></path>
            <path d="M670,1050.76161 L662.504569,1055.95935 L651.7,1052.58628 L651.7,1025.3 L659.4,1020.3 L670,1023.6 L670,1050.76161 Z" id="Combined-Shape" fill="#FF0000"></path>
            <path d="M639.640959,1066.06539 L625.4,1061.71629 L625.4,998.1 L635.4,991.6 L649.2,995.9 L649.2,1059.21024 L639.640959,1066.06539 Z" id="Combined-Shape" fill="#FF0C00"></path>
            <path d="M690.017356,1051.87734 L661.7,1043.26729 L661.7,968.4 L681.8,954.2 L709.7,962.8 L709.7,1038.25396 L690.017356,1051.87734 Z" id="Combined-Shape" fill="#FF1900"></path>
            <path d="M685.553965,992.105376 L644.64526,979.983656 L649.3,968.3 L647.699606,677.738355 L709.348037,677.738355 L711.468823,956.590952 L715.767334,970.618423 L685.553965,992.105376 Z" id="Combined-Shape" fill="#FF0000"></path>
            <path d="M757.340405,1038.51762 L738.853185,1032.90324 L738.7,948.3 L752,939.7 L770.3,945.3 L770.3,1029.5522 L757.340405,1038.51762 Z" id="Combined-Shape" fill="#FF0C00"></path>
            <path d="M570.785931,1171.78238 L560.695733,1168.68612 L560.695733,1163.06084 L567.5,1158.28547 L567.5,1145.3 L574.6,1140.3 L584.4,1143.4 L584.4,1162.07041 L570.785931,1171.78238 Z" id="Combined-Shape" fill="#FF0000"></path>
            <path d="M581.435328,1170.49355 L575.5,1168.81158 L575.5,1165.4 L579.7,1162.5 L585.5,1164.3 L585.5,1167.64732 L581.435328,1170.49355 Z" id="Combined-Shape" fill="#FF0000"></path>
            <path d="M464.6,1112.1 L464.6,1016.42308 L507.5,1016.42308 L507.5,1107.7 L489.9,1119.9 L464.6,1112.1 Z" id="Combined-Shape" fill="#FF0000"></path>
            <path d="M621.551967,1186.00727 L607.9,1181.92257 L607.9,1174.1 L617.6,1167.3 L631,1171.5 L631,1179.39929 L621.551967,1186.00727 Z" id="Combined-Shape" fill="#FF0000"></path>
            <path d="M476.6,1127.39547 L476.6,1098.8 L484.7,1093.5 L495.760585,1096.92644 L495.8,1125.5 L487.9,1130.9 L476.6,1127.39547 Z" id="Combined-Shape" fill="#FF0000"></path>
            <path d="M540.124297,982.624785 L545.448594,984.249571 L540.124297,982.624785 L534.8,981 L550.1,969.9 L571,976.474 L571,1074.4 L556.1,1084.6 L534.8,1078.1 L534.8,981 L540.124297,982.624785 Z" id="Combined-Shape" fill="#FF0000"></path>
            <path d="M522.623709,1070.50565 L511,1066.89918 L511,1028.2 L519.3,1022.3 L530.9,1025.9 L530.9,1064.60249 L522.623709,1070.50565 Z" id="Combined-Shape" fill="#FF1900"></path>
            <path d="M445.5,1130.12246 L445.5,1120.8 L457,1112.7 L473,1117.6 L473,1127.09935 L461.498121,1135.18636 L445.5,1130.12246 Z" id="Combined-Shape" fill="#FF0000"></path>
            <path d="M531.9,1088.56817 L519.7,1084.49835 L519.7,1077.5 L528.4,1071.3 L540.6,1075.1 L540.6,1082.30401 L531.9,1088.56817 Z" id="Combined-Shape" fill="#FF1900"></path>
            <path d="M476.212435,1139.50751 L470.3,1137.6892 L470.3,1134.4 L474.5,1131.4 L480.3,1133.2 L480.3,1136.61056 L476.212435,1139.50751 Z" id="Combined-Shape" fill="#FF0000"></path>
            <path d="M434.394963,1134.41521 L428.6,1132.60229 L428.6,1129.2 L432.7,1126.3 L438.5,1128.1 L438.5,1131.50193 L434.394963,1134.41521 Z" id="Combined-Shape" fill="#FF0000"></path>
            <path d="M503.402961,1154.79412 L497.5,1153.00787 L497.5,1149.7 L501.6,1146.7 L507.4,1148.5 L507.4,1151.98457 L503.402961,1154.79412 Z" id="Combined-Shape" fill="#FF0000"></path>
            <path d="M663.1,1164.2 L631.9,1154.9 L631.9,1086.6 L645.186198,1077.2714 L663.537184,1070.88569 L663.537184,1139.38867 L676.143854,1155.21067 L663.1,1164.2 Z" id="Combined-Shape" fill="#FF0000"></path>
            <path d="M735.763309,1068.62807 L716.906307,1062.76031 L717.1,1016 L730.4,1007.3 L748.8,1013 L748.8,1059.78952 L735.763309,1068.62807 Z" id="Combined-Shape" fill="#FF0C00"></path>
            <path d="M714.694322,1070.19271 L703.3,1066.77463 L703.3,1038.1 L711.4,1032.9 L722.6,1036.3 L722.6,1064.79142 L714.694322,1070.19271 Z" id="Combined-Shape" fill="#FF1900"></path>
            <path d="M862.5,1020.19122 L814.4,1005.5 L814.4,899.2 L827.433306,890.557127 L875.498327,905.310279 L875.498327,1011.43298 L862.5,1020.19122 Z" id="Combined-Shape" fill="#FF0000"></path>
        </g>
    </g>
</svg>